# Blender 3.6.2
# www.blender.org
o Cylinder
v 0.000000 -0.500000 0.500000
v 0.000000 0.500000 0.500000
v -0.500000 -0.500000 0.500000
v -0.353553 0.500000 0.353553
v -0.500000 -0.500000 0.000000
v -0.500000 0.500000 -0.000000
v -0.500000 -0.500000 -0.500000
v -0.353553 0.500000 -0.353553
v 0.000000 -0.500000 -0.500000
v 0.000000 0.500000 -0.500000
v 0.500000 -0.500000 -0.500000
v 0.353553 0.500000 -0.353553
v 0.500000 -0.500000 0.000000
v 0.500000 0.500000 -0.000000
v 0.500000 -0.500000 0.500000
v 0.353553 0.500000 0.353553
vn 0.3827 -0.0000 0.9239
vn 0.9239 -0.0000 -0.3827
vn -0.9239 -0.0000 0.3827
vn 0.9239 -0.0000 0.3827
vn -0.0000 1.0000 -0.0000
vn -0.3827 -0.0000 -0.9239
vn -0.9239 -0.0000 -0.3827
vn -0.0000 -1.0000 -0.0000
vn 0.3827 -0.0000 -0.9239
vn -0.3827 -0.0000 0.9239
vn -0.0000 0.1449 0.9894
vn 0.9894 0.1449 -0.0000
vn -0.9894 0.1449 -0.0000
vn -0.0000 0.1449 -0.9894
vt 0.343750 0.156250
vt 0.000000 0.312500
vt 0.000000 0.156250
vt 0.343750 0.812500
vt 0.000000 1.000000
vt 0.000000 0.812500
vt 0.343750 0.000000
vt 0.343750 0.156250
vt 0.343750 0.625000
vt 0.000000 0.625000
vt 0.562500 0.625000
vt 0.656250 0.406250
vt 0.437500 0.312500
vt 0.343750 0.468750
vt 0.000000 0.468750
vt 0.343750 0.312500
vt 0.656250 0.160806
vt 0.501505 0.312500
vt 0.000000 0.000000
vt 0.343750 1.000000
vt 0.343750 0.406250
vt 0.343750 0.531250
vt 0.437500 0.625000
vt 0.656250 0.531250
vt 0.562500 0.312500
vt 0.500000 0.000000
vt 0.656250 0.000000
vt 0.656250 0.312500
s 0
f 1/1/1 16/2/1 2/3/1
f 13/4/2 12/5/2 14/6/2
f 5/3/3 4/7/3 6/8/3
f 16/6/4 13/9/4 14/10/4
f 12/11/5 8/12/5 4/13/5
f 9/14/6 8/10/6 10/15/6
f 8/16/7 5/3/7 6/8/7
f 9/17/8 13/18/8 1/1/8
f 12/2/9 9/14/9 10/15/9
f 4/19/10 1/1/10 2/3/10
f 1/1/11 15/16/11 16/2/11
f 13/4/12 11/20/12 12/5/12
f 5/3/13 3/19/13 4/7/13
f 16/6/12 15/4/12 13/9/12
f 4/13/5 2/21/5 16/22/5
f 16/22/5 14/23/5 12/11/5
f 12/11/5 10/24/5 8/12/5
f 8/12/5 6/25/5 4/13/5
f 4/13/5 16/22/5 12/11/5
f 9/14/14 7/9/14 8/10/14
f 8/16/13 7/2/13 5/3/13
f 1/1/8 3/7/8 5/26/8
f 5/26/8 7/27/8 9/17/8
f 9/17/8 11/28/8 13/18/8
f 13/18/8 15/16/8 1/1/8
f 1/1/8 5/26/8 9/17/8
f 12/2/14 11/16/14 9/14/14
f 4/19/11 3/7/11 1/1/11
