# Blender 3.6.2
# www.blender.org
o Cylinder
v 0.000000 -0.500000 0.500000
v 0.000000 0.500000 0.500000
v -0.353553 -0.500000 0.353553
v -0.353553 0.500000 0.353553
v -0.500000 -0.500000 0.000000
v -0.500000 0.500000 -0.000000
v -0.353553 -0.500000 -0.353553
v -0.353553 0.500000 -0.353553
v 0.000000 -0.500000 -0.500000
v 0.000000 0.500000 -0.500000
v 0.353553 -0.500000 -0.353553
v 0.353553 0.500000 -0.353553
v 0.500000 -0.500000 0.000000
v 0.500000 0.500000 -0.000000
v 0.353553 -0.500000 0.353553
v 0.353553 0.500000 0.353553
vn -0.3827 -0.0000 0.9239
vn -0.9239 -0.0000 0.3827
vn -0.9239 -0.0000 -0.3827
vn -0.3827 -0.0000 -0.9239
vn 0.3827 -0.0000 -0.9239
vn 0.9239 -0.0000 -0.3827
vn -0.0000 1.0000 -0.0000
vn 0.3827 -0.0000 0.9239
vn 0.9239 -0.0000 0.3827
vn -0.0000 -1.0000 -0.0000
vt 0.000000 0.250000
vt 0.000000 0.125000
vt 0.343750 0.125000
vt 0.000000 0.000000
vt 0.343750 0.000000
vt 0.000000 1.000000
vt 0.000000 0.875000
vt 0.343750 0.875000
vt 0.000000 0.750000
vt 0.343750 0.750000
vt 0.000000 0.625000
vt 0.343750 0.625000
vt 0.000000 0.500000
vt 0.343750 0.500000
vt 0.562500 0.625000
vt 0.343750 0.531250
vt 0.437500 0.312500
vt 0.000000 0.375000
vt 0.343750 0.250000
vt 0.343750 0.375000
vt 0.566291 0.310930
vt 0.345320 0.222541
vt 0.433709 0.001570
vt 0.343750 1.000000
vt 0.656250 0.531250
vt 0.562500 0.312500
vt 0.656250 0.406250
vt 0.343750 0.406250
vt 0.437500 0.625000
vt 0.654680 0.089959
vt 0.654680 0.222541
vt 0.566291 0.001570
vt 0.345320 0.089959
vt 0.433709 0.310930
s 0
f 2/1/1 4/2/1 3/3/1
f 4/2/2 6/4/2 5/5/2
f 6/6/3 8/7/3 7/8/3
f 8/7/4 10/9/4 9/10/4
f 10/9/5 12/11/5 11/12/5
f 12/11/6 14/13/6 13/14/6
f 4/15/7 16/16/7 12/17/7
f 16/18/8 2/1/8 1/19/8
f 14/13/9 16/18/9 15/20/9
f 1/21/10 5/22/10 9/23/10
f 1/19/1 2/1/1 3/3/1
f 3/3/2 4/2/2 5/5/2
f 5/24/3 6/6/3 7/8/3
f 7/8/4 8/7/4 9/10/4
f 9/10/5 10/9/5 11/12/5
f 11/12/6 12/11/6 13/14/6
f 12/17/7 6/25/7 4/15/7
f 12/17/7 10/26/7 8/27/7
f 16/16/7 14/28/7 12/17/7
f 4/15/7 2/29/7 16/16/7
f 12/17/7 8/27/7 6/25/7
f 15/20/8 16/18/8 1/19/8
f 13/14/9 14/13/9 15/20/9
f 13/30/10 15/31/10 1/21/10
f 1/21/10 11/32/10 13/30/10
f 5/22/10 7/33/10 9/23/10
f 1/21/10 3/34/10 5/22/10
f 9/23/10 11/32/10 1/21/10
