# Blender 3.6.2
# www.blender.org
o Cylinder
v 0.000000 0.100000 -0.500000
v 0.000000 -0.500000 -0.500000
v -0.353553 0.100000 -0.353553
v -0.353553 -0.500000 -0.353553
v -0.500000 0.100000 -0.000000
v -0.500000 -0.500000 0.000000
v -0.353553 0.100000 0.353553
v -0.353553 -0.500000 0.353553
v 0.000000 0.100000 0.500000
v 0.000000 -0.500000 0.500000
v 0.353553 0.100000 0.353553
v 0.353553 -0.500000 0.353553
v 0.500000 0.100000 -0.000000
v 0.500000 -0.500000 0.000000
v 0.353553 0.100000 -0.353553
v 0.353553 -0.500000 -0.353553
v 0.000000 0.450000 -0.202647
v -0.143293 0.450000 -0.143293
v -0.202647 0.450000 -0.000000
v -0.143293 0.450000 0.143293
v 0.000000 0.450000 0.202647
v 0.143293 0.450000 0.143293
v 0.202647 0.450000 -0.000000
v 0.143293 0.450000 -0.143293
vn -0.3827 -0.0000 -0.9239
vn -0.9239 -0.0000 -0.3827
vn -0.9239 -0.0000 0.3827
vn -0.3827 -0.0000 0.9239
vn 0.3827 -0.0000 0.9239
vn 0.9239 -0.0000 0.3827
vn -0.0000 -1.0000 -0.0000
vn 0.3827 -0.0000 -0.9239
vn 0.9239 -0.0000 -0.3827
vn -0.0000 1.0000 -0.0000
vn -0.3010 0.6174 -0.7267
vn -0.7267 0.6174 -0.3010
vn -0.7267 0.6174 0.3010
vn -0.3010 0.6174 0.7267
vn 0.3010 0.6174 0.7267
vn 0.7267 0.6174 0.3010
vn 0.7267 0.6174 -0.3010
vn 0.3010 0.6174 -0.7267
vt 0.000000 0.250000
vt 0.000000 0.125000
vt 0.343750 0.125000
vt 0.000000 0.000000
vt 0.343750 0.000000
vt 0.000000 1.000000
vt 0.000000 0.875000
vt 0.343750 0.875000
vt 0.000000 0.750000
vt 0.343750 0.750000
vt 0.000000 0.625000
vt 0.343750 0.625000
vt 0.000000 0.500000
vt 0.343750 0.500000
vt 0.562500 0.625000
vt 0.437500 0.625000
vt 0.437500 0.312500
vt 0.000000 0.375000
vt 0.343750 0.250000
vt 0.394745 0.113330
vt 0.605254 0.199170
vt 0.457080 0.261505
vt 0.343750 1.000000
vt 0.343750 0.375000
vt 0.656250 0.531250
vt 0.562500 0.312500
vt 0.656250 0.406250
vt 0.343750 0.531250
vt 0.343750 0.406250
vt 0.457080 0.050995
vt 0.542920 0.050995
vt 0.394745 0.199170
vt 0.542920 0.261505
vt 0.605254 0.113330
s 0
f 2/1/1 4/2/1 3/3/1
f 4/2/2 6/4/2 5/5/2
f 6/6/3 8/7/3 7/8/3
f 8/7/4 10/9/4 9/10/4
f 10/9/5 12/11/5 11/12/5
f 12/11/6 14/13/6 13/14/6
f 4/15/7 2/16/7 12/17/7
f 16/18/8 2/1/8 1/19/8
f 13/14/9 14/13/9 16/18/9
f 23/20/10 19/21/10 21/22/10
f 17/23/11 1/6/11 3/7/11
f 19/10/12 18/8/12 3/7/12
f 20/12/13 19/10/13 5/9/13
f 21/14/14 20/12/14 7/11/14
f 21/14/15 9/13/15 11/18/15
f 23/19/16 22/24/16 11/18/16
f 23/19/17 13/1/17 15/2/17
f 17/5/18 24/3/18 15/2/18
f 1/19/1 2/1/1 3/3/1
f 3/3/2 4/2/2 5/5/2
f 5/23/3 6/6/3 7/8/3
f 7/8/4 8/7/4 9/10/4
f 9/10/5 10/9/5 11/12/5
f 11/12/6 12/11/6 13/14/6
f 12/17/7 6/25/7 4/15/7
f 12/17/7 10/26/7 8/27/7
f 16/28/7 14/29/7 12/17/7
f 12/17/7 2/16/7 16/28/7
f 12/17/7 8/27/7 6/25/7
f 15/24/8 16/18/8 1/19/8
f 15/24/9 13/14/9 16/18/9
f 23/20/10 24/30/10 17/31/10
f 21/22/10 22/32/10 23/20/10
f 19/21/10 20/33/10 21/22/10
f 17/31/10 18/34/10 19/21/10
f 19/21/10 23/20/10 17/31/10
f 18/8/11 17/23/11 3/7/11
f 5/9/12 19/10/12 3/7/12
f 7/11/13 20/12/13 5/9/13
f 9/13/14 21/14/14 7/11/14
f 22/24/15 21/14/15 11/18/15
f 13/1/16 23/19/16 11/18/16
f 24/3/17 23/19/17 15/2/17
f 1/4/18 17/5/18 15/2/18
